<svg width="131" height="29" viewBox="0 0 131 29" fill="none" xmlns="http://www.w3.org/2000/svg">
<path d="M0.34517 28.5L4.69176 2.31818H22.5639L21.6946 7.45739H10.1506L9.28125 12.8267H19.6875L18.8182 17.9787H8.41193L6.6733 28.5H0.34517ZM21.4038 28.5L24.6765 8.86364H30.9279L27.6552 28.5H21.4038ZM28.2433 6.5625C27.3569 6.5625 26.6367 6.26847 26.0827 5.6804C25.5288 5.09233 25.3114 4.3892 25.4308 3.57102C25.5501 2.74432 25.9677 2.04119 26.6836 1.46165C27.3995 0.882102 28.1964 0.59233 29.0742 0.59233C29.9606 0.59233 30.6722 0.882102 31.2092 1.46165C31.7546 2.04119 31.9677 2.74432 31.8484 3.57102C31.7461 4.3892 31.337 5.09233 30.6211 5.6804C29.9137 6.26847 29.1211 6.5625 28.2433 6.5625ZM45.9908 8.86364L45.2109 13.4659H32.8232L33.603 8.86364H45.9908ZM36.9652 4.15909H43.2166L40.1996 22.3253C40.1399 22.7088 40.1484 23.0199 40.2251 23.2585C40.3104 23.4886 40.4638 23.6548 40.6854 23.7571C40.9155 23.8509 41.1967 23.8977 41.5291 23.8977C41.7592 23.8977 42.0149 23.8722 42.2962 23.821C42.5774 23.7699 42.7905 23.7315 42.9354 23.706L43.1399 28.2188C42.8075 28.3125 42.3601 28.419 41.7976 28.5384C41.2436 28.6662 40.5959 28.7472 39.8544 28.7812C38.3544 28.8409 37.1143 28.6662 36.1342 28.2571C35.1626 27.8395 34.4766 27.1918 34.076 26.3139C33.6839 25.4361 33.6072 24.3366 33.8459 23.0156L36.9652 4.15909ZM54.0639 17.3011L52.1974 28.5H45.946L49.2188 8.86364H55.1634L54.5753 12.4688H54.7926C55.4063 11.267 56.2969 10.3253 57.4645 9.64347C58.6321 8.95312 59.9446 8.60795 61.402 8.60795C62.7741 8.60795 63.9205 8.91477 64.8409 9.52841C65.7614 10.142 66.4134 11.0028 66.7969 12.1108C67.1804 13.2102 67.2443 14.5014 66.9886 15.9844L64.892 28.5H58.6406L60.5199 17.2116C60.7074 16.1293 60.5753 15.2812 60.1236 14.6676C59.6804 14.0455 58.956 13.7344 57.9503 13.7344C57.294 13.7344 56.6932 13.8793 56.1477 14.169C55.6108 14.4503 55.1591 14.8551 54.7926 15.3835C54.4347 15.9119 54.1918 16.5511 54.0639 17.3011ZM77.8519 28.8707C75.7979 28.8707 74.0934 28.4659 72.7383 27.6562C71.3917 26.8381 70.4457 25.6747 69.9002 24.1662C69.3548 22.6491 69.2567 20.8466 69.6062 18.7585C69.9471 16.7301 70.6417 14.9574 71.69 13.4403C72.7468 11.9148 74.0763 10.7301 75.6786 9.88636C77.2809 9.03409 79.0664 8.60795 81.0352 8.60795C82.4329 8.60795 83.6729 8.82528 84.7553 9.25994C85.8377 9.6946 86.7326 10.3423 87.44 11.2031C88.1474 12.0554 88.6289 13.1037 88.8846 14.348C89.1403 15.5923 89.1317 17.0199 88.859 18.6307L88.6161 20.1903H71.5621L72.1374 16.5597H83.3874C83.4897 15.8949 83.4343 15.3026 83.2212 14.7827C83.0082 14.2628 82.663 13.858 82.1857 13.5682C81.717 13.2699 81.1417 13.1207 80.4599 13.1207C79.7695 13.1207 79.1218 13.2827 78.5167 13.6065C77.9201 13.9219 77.413 14.348 76.9954 14.8849C76.5778 15.4219 76.305 16.027 76.1772 16.7003L75.4996 20.4205C75.3633 21.2472 75.4016 21.9545 75.6147 22.5426C75.8278 23.1307 76.1942 23.5824 76.7141 23.8977C77.234 24.2045 77.9031 24.358 78.7212 24.358C79.2667 24.358 79.7781 24.2855 80.2553 24.1406C80.7326 23.9872 81.1587 23.7614 81.5337 23.4631C81.9173 23.1562 82.2283 22.7855 82.467 22.3509L88.1687 22.517C87.7085 23.804 86.9968 24.9247 86.0337 25.8793C85.0707 26.8253 83.8945 27.5625 82.5053 28.0909C81.1246 28.6108 79.5735 28.8707 77.8519 28.8707ZM109.783 14.8594L104.146 15.0128C104.154 14.5952 104.06 14.2287 103.864 13.9134C103.668 13.5895 103.391 13.3381 103.033 13.1591C102.675 12.9801 102.249 12.8906 101.755 12.8906C100.954 12.8906 100.234 13.0696 99.5945 13.4276C98.9638 13.7855 98.6101 14.25 98.5334 14.821C98.4737 15.1278 98.5589 15.3963 98.7891 15.6264C99.0192 15.848 99.5305 16.044 100.323 16.2145L104.005 16.9304C105.897 17.3054 107.269 17.9574 108.121 18.8864C108.982 19.8068 109.289 21.0256 109.042 22.5426C108.82 23.8381 108.249 24.9588 107.329 25.9048C106.417 26.8509 105.254 27.5838 103.839 28.1037C102.433 28.6151 100.877 28.8707 99.1726 28.8707C96.2919 28.8707 94.1186 28.2912 92.6527 27.1321C91.1953 25.9645 90.5135 24.4176 90.6072 22.4915L96.6925 22.3381C96.718 23.0625 96.9609 23.608 97.4212 23.9744C97.8899 24.3324 98.5249 24.5199 99.326 24.5369C100.204 24.554 100.962 24.3707 101.602 23.9872C102.241 23.6037 102.599 23.1307 102.675 22.5682C102.727 22.2017 102.603 21.9162 102.305 21.7116C102.015 21.5071 101.474 21.3239 100.681 21.1619L97.3572 20.5099C95.4482 20.1435 94.0675 19.4531 93.2152 18.4389C92.3714 17.4162 92.0817 16.1122 92.3459 14.527C92.5675 13.2656 93.0874 12.196 93.9055 11.3182C94.7322 10.4318 95.8104 9.75852 97.1399 9.2983C98.478 8.83807 100.004 8.60795 101.717 8.60795C104.461 8.60795 106.532 9.16619 107.93 10.2827C109.336 11.3906 109.954 12.9162 109.783 14.8594ZM130.49 14.8594L124.853 15.0128C124.861 14.5952 124.767 14.2287 124.571 13.9134C124.375 13.5895 124.098 13.3381 123.74 13.1591C123.382 12.9801 122.956 12.8906 122.462 12.8906C121.661 12.8906 120.941 13.0696 120.301 13.4276C119.671 13.7855 119.317 14.25 119.24 14.821C119.181 15.1278 119.266 15.3963 119.496 15.6264C119.726 15.848 120.238 16.044 121.03 16.2145L124.712 16.9304C126.604 17.3054 127.976 17.9574 128.828 18.8864C129.689 19.8068 129.996 21.0256 129.749 22.5426C129.527 23.8381 128.956 24.9588 128.036 25.9048C127.124 26.8509 125.961 27.5838 124.546 28.1037C123.14 28.6151 121.584 28.8707 119.88 28.8707C116.999 28.8707 114.826 28.2912 113.36 27.1321C111.902 25.9645 111.221 24.4176 111.314 22.4915L117.4 22.3381C117.425 23.0625 117.668 23.608 118.128 23.9744C118.597 24.3324 119.232 24.5199 120.033 24.5369C120.911 24.554 121.669 24.3707 122.309 23.9872C122.948 23.6037 123.306 23.1307 123.382 22.5682C123.434 22.2017 123.31 21.9162 123.012 21.7116C122.722 21.5071 122.181 21.3239 121.388 21.1619L118.064 20.5099C116.155 20.1435 114.775 19.4531 113.922 18.4389C113.078 17.4162 112.789 16.1122 113.053 14.527C113.275 13.2656 113.794 12.196 114.613 11.3182C115.439 10.4318 116.517 9.75852 117.847 9.2983C119.185 8.83807 120.711 8.60795 122.424 8.60795C125.168 8.60795 127.239 9.16619 128.637 10.2827C130.043 11.3906 130.661 12.9162 130.49 14.8594Z" fill="#E6533C"/>
</svg>
